<?xml version="1.0" encoding="utf-8"?>
<!-- Generator: Adobe Illustrator 21.0.2, SVG Export Plug-In . SVG Version: 6.00 Build 0)  -->
<svg version="1.1" id="レイヤー_1" xmlns="http://www.w3.org/2000/svg" xmlns:xlink="http://www.w3.org/1999/xlink" x="0px"
	 y="0px" viewBox="0 0 156 136" style="enable-background:new 0 0 156 136;" xml:space="preserve">
<style type="text/css">
	.st0{fill:#231815;}
	.st1{fill:#00B9E7;}
</style>
<g>
	<g>
		<path class="st0" d="M27,57.3c4,0,7.3,2.9,7.3,7.3S31,71.9,27,71.9s-7.3-2.9-7.3-7.3C19.7,60.2,23,57.3,27,57.3z M27,70.5
			c3.4,0,5.6-2.8,5.6-5.8s-2.2-5.8-5.6-5.8s-5.7,2.8-5.7,5.8C21.4,67.7,23.6,70.5,27,70.5z"/>
		<path class="st0" d="M40.5,71.7V61.1h1.6v1.4c0.8-1.2,2.1-1.7,3.3-1.7c1.6,0,2.6,0.9,3,1.7c0.4,0.8,0.5,1.6,0.5,3.2v5.9h-1.6v-5.9
			c0-1.6,0-3.4-2.3-3.4c-0.5,0-2.9,0.1-2.9,3.4v5.9h-1.6V71.7z"/>
		<path class="st0" d="M56.5,67.1c0.1,1.9,1.2,3.5,3.8,3.5c1.7,0,2.7-0.6,3.3-0.9v1.7c-0.5,0.2-1.6,0.7-3.3,0.7
			c-4.3,0-5.4-3.2-5.4-5.5c0-3.4,2.1-5.6,4.8-5.6c1.3,0,3.2,0.5,4.2,2.8c0.5,1.2,0.5,2.6,0.5,3.3H56.5z M62.8,65.6
			c-0.2-2.6-2-3.2-3.1-3.2c-1.7,0-3,1.3-3.2,3.2H62.8z"/>
		<path class="st1" d="M73.8,57.6H79c1.5,0,2.5,0.1,3.6,0.5c3.5,1.3,3.9,5.2,3.9,6.5c0,1.9-0.5,5.2-3.8,6.5
			c-1.1,0.4-2.2,0.5-3.8,0.5h-5L73.8,57.6L73.8,57.6z M75.5,70.2h2.9c2.2,0,6.4,0,6.4-5.5s-4.2-5.5-6.3-5.5h-3V70.2z"/>
		<path class="st1" d="M93,61.8c0.4-0.2,1.6-0.9,3.4-0.9c0.5,0,2.4,0,3.5,1.3c0.7,0.8,0.7,1.6,0.7,2.7v4.8c0,1.1,0.2,1.6,0.4,2h-1.7
			c-0.1-0.3-0.3-0.5-0.3-1.3c-1,1.1-2.3,1.6-3.8,1.6c-2.3,0-3.3-1.5-3.3-3.1c0-3.2,3.2-3.5,5-3.7c1.5-0.2,2-0.2,2-1.1
			c0-1.2-1.3-1.7-2.7-1.7c-1.6,0-2.8,0.7-3.3,1L93,61.8z M99.1,66.2c-0.5,0.2-0.7,0.3-2.2,0.4c-1.6,0.2-3.3,0.5-3.3,2.3
			c0,1,0.7,1.7,1.9,1.7c1.2,0,2.9-0.7,3.7-2.2L99.1,66.2L99.1,66.2z"/>
		<path class="st1" d="M117.5,70.1l2.7-9h1.7l-3.4,10.6h-2.1l-2.4-9.3l-2.4,9.3h-2.1l-3.4-10.6h1.7l2.7,9l2.3-9h2.2L117.5,70.1z"/>
		<path class="st1" d="M127.4,71.7V61.1h1.6v1.4c0.8-1.2,2.1-1.7,3.3-1.7c1.6,0,2.6,0.9,3,1.7c0.4,0.8,0.5,1.6,0.5,3.2v5.9h-1.6
			v-5.9c0-1.6,0-3.4-2.3-3.4c-0.5,0-2.9,0.1-2.9,3.4v5.9h-1.6V71.7z"/>
	</g>
</g>
</svg>
