<?xml version="1.0" encoding="utf-8"?>
<!-- Generator: Adobe Illustrator 22.1.0, SVG Export Plug-In . SVG Version: 6.00 Build 0)  -->
<svg version="1.1" id="レイヤー_1" xmlns="http://www.w3.org/2000/svg" xmlns:xlink="http://www.w3.org/1999/xlink" x="0px"
	 y="0px" viewBox="0 0 94 15" style="enable-background:new 0 0 94 15;" xml:space="preserve">
<style type="text/css">
	.st0{fill:#231815;}
	.st1{fill:#00B9E7;}
</style>
<path class="st0" d="M7.2,0.1c4,0,7.2,2.9,7.2,7.4s-3.3,7.4-7.2,7.4S0,12,0,7.5S3.3,0.1,7.2,0.1z M7.2,13.5c3.4,0,5.5-2.8,5.5-5.9
	s-2.2-5.9-5.5-5.9S1.6,4.6,1.6,7.6C1.7,10.7,3.9,13.5,7.2,13.5z"/>
<path class="st0" d="M16.6,14.7V4h1.6v1.4c0.8-1.2,2.1-1.7,3.3-1.7c1.6,0,2.6,0.9,3,1.7s0.5,1.6,0.5,3.2v6h-1.6v-6
	c0-1.6,0-3.4-2.3-3.4c-0.5,0-2.9,0.1-2.9,3.4v6h-1.6V14.7z"/>
<path class="st0" d="M28.5,9.7c0.1,1.9,1.2,3.5,3.8,3.5c1.7,0,2.7-0.6,3.3-0.9V14c-0.5,0.2-1.6,0.7-3.3,0.7c-4.3,0-5.3-3.2-5.3-5.6
	c0-3.4,2.1-5.7,4.7-5.7c1.3,0,3.2,0.5,4.2,2.8c0.5,1.2,0.5,2.6,0.5,3.3C36.3,9.7,28.5,9.7,28.5,9.7z M34.7,8.1
	c-0.2-2.6-2-3.2-3.1-3.2c-1.7,0-3,1.3-3.2,3.2H34.7z"/>
<path class="st1" d="M44.6,0.4h5.1c1.5,0,2.5,0.1,3.6,0.5c3.5,1.3,3.9,5.3,3.9,6.6c0,1.9-0.5,5.3-3.8,6.6c-1.1,0.4-2.2,0.5-3.8,0.5
	h-4.9L44.6,0.4L44.6,0.4z M46.3,13.2h2.9c2.2,0,6.3,0,6.3-5.6s-4.2-5.6-6.2-5.6h-3V13.2z"/>
<path class="st1" d="M59.6,4.4C60,4.2,61.2,3.5,63,3.5c0.5,0,2.4,0,3.5,1.3c0.7,0.8,0.7,1.6,0.7,2.7v4.9c0,1.1,0.2,1.6,0.4,2h-1.7
	c-0.1-0.3-0.3-0.5-0.3-1.3c-1,1.1-2.3,1.6-3.8,1.6c-2.3,0-3.3-1.5-3.3-3.1c0-3.2,3.2-3.5,4.9-3.7c1.5-0.2,2-0.2,2-1.1
	c0-1.2-1.3-1.7-2.7-1.7c-1.6,0-2.8,0.7-3.3,1L59.6,4.4z M65.6,8.9c-0.5,0.2-0.7,0.3-2.2,0.4c-1.6,0.2-3.3,0.5-3.3,2.3
	c0,1,0.7,1.7,1.9,1.7c1.2,0,2.9-0.7,3.7-2.2L65.6,8.9L65.6,8.9z"/>
<path class="st1" d="M79.9,13.1L82.5,4h1.7l-3.4,10.7h-2.1l-2.4-9.4L74,14.7H72L68.6,4h1.7l2.7,9.1L75.2,4h2.2L79.9,13.1z"/>
<path class="st1" d="M85.7,14.7V4h1.6v1.4c0.8-1.2,2.1-1.7,3.3-1.7c1.6,0,2.6,0.9,3,1.7S94,7,94,8.6v6h-1.6v-6c0-1.6,0-3.4-2.3-3.4
	c-0.5,0-2.9,0.1-2.9,3.4v6h-1.6V14.7z"/>
</svg>
