<?xml version="1.0" encoding="utf-8"?>
<!-- Generator: Adobe Illustrator 21.0.2, SVG Export Plug-In . SVG Version: 6.00 Build 0)  -->
<svg version="1.1" id="レイヤー_1" xmlns="http://www.w3.org/2000/svg" xmlns:xlink="http://www.w3.org/1999/xlink" x="0px"
	 y="0px" viewBox="0 0 156 136" style="enable-background:new 0 0 156 136;" xml:space="preserve">
<style type="text/css">
	.st0{fill:#231815;}
	.st1{fill:#00B9E7;}
	.st2{fill:#FFFFFF;}
	.st3{fill:#D3D1D0;}
</style>
<g>
	<g>
		<path class="st0" d="M7.5,120.7h1.3v5.4h5.4v1.4H8.8v5.4H7.5v-5.4H2.1v-1.4h5.4V120.7z"/>
		<path class="st0" d="M27,119.4c4,0,7.3,2.9,7.3,7.3S31,134,27,134s-7.3-2.9-7.3-7.3C19.7,122.3,23,119.4,27,119.4z M27,132.6
			c3.4,0,5.6-2.8,5.6-5.8S30.4,121,27,121s-5.7,2.8-5.7,5.8C21.4,129.8,23.6,132.6,27,132.6z"/>
		<path class="st0" d="M40.5,133.8v-10.6h1.6v1.4c0.8-1.2,2.1-1.7,3.3-1.7c1.6,0,2.6,0.9,3,1.7c0.4,0.8,0.5,1.6,0.5,3.2v5.9h-1.6
			v-5.9c0-1.6,0-3.4-2.3-3.4c-0.5,0-2.9,0.1-2.9,3.4v5.9h-1.6V133.8z"/>
		<path class="st0" d="M56.5,129.2c0.1,1.9,1.2,3.5,3.8,3.5c1.7,0,2.7-0.6,3.3-0.9v1.7c-0.5,0.2-1.6,0.7-3.3,0.7
			c-4.3,0-5.4-3.2-5.4-5.5c0-3.4,2.1-5.6,4.8-5.6c1.3,0,3.2,0.5,4.2,2.8c0.5,1.2,0.5,2.6,0.5,3.3H56.5z M62.8,127.7
			c-0.2-2.6-2-3.2-3.1-3.2c-1.7,0-3,1.3-3.2,3.2H62.8z"/>
		<path class="st1" d="M73.8,119.7H79c1.5,0,2.5,0.1,3.6,0.5c3.5,1.3,3.9,5.2,3.9,6.5c0,1.9-0.5,5.2-3.8,6.5
			c-1.1,0.4-2.2,0.5-3.8,0.5h-5L73.8,119.7L73.8,119.7z M75.5,132.3h2.9c2.2,0,6.4,0,6.4-5.5s-4.2-5.5-6.3-5.5h-3V132.3z"/>
		<path class="st1" d="M93,123.9c0.4-0.2,1.6-0.9,3.4-0.9c0.5,0,2.4,0,3.5,1.3c0.7,0.8,0.7,1.6,0.7,2.7v4.8c0,1.1,0.2,1.6,0.4,2
			h-1.7c-0.1-0.3-0.3-0.5-0.3-1.3c-1,1.1-2.3,1.6-3.8,1.6c-2.3,0-3.3-1.5-3.3-3.1c0-3.2,3.2-3.5,5-3.7c1.5-0.2,2-0.2,2-1.1
			c0-1.2-1.3-1.7-2.7-1.7c-1.6,0-2.8,0.7-3.3,1L93,123.9z M99.1,128.3c-0.5,0.2-0.7,0.3-2.2,0.4c-1.6,0.2-3.3,0.5-3.3,2.3
			c0,1,0.7,1.7,1.9,1.7c1.2,0,2.9-0.7,3.7-2.2L99.1,128.3L99.1,128.3z"/>
		<path class="st1" d="M117.5,132.2l2.7-9h1.7l-3.4,10.6h-2.1l-2.4-9.3l-2.4,9.3h-2.1l-3.4-10.6h1.7l2.7,9l2.3-9h2.2L117.5,132.2z"
			/>
		<path class="st1" d="M127.4,133.8v-10.6h1.6v1.4c0.8-1.2,2.1-1.7,3.3-1.7c1.6,0,2.6,0.9,3,1.7c0.4,0.8,0.5,1.6,0.5,3.2v5.9h-1.6
			v-5.9c0-1.6,0-3.4-2.3-3.4c-0.5,0-2.9,0.1-2.9,3.4v5.9h-1.6V133.8z"/>
		<path class="st0" d="M147.2,120.7h1.3v5.4h5.4v1.4h-5.4v5.4h-1.3v-5.4h-5.4v-1.4h5.4V120.7z"/>
	</g>
	<g>
		<path class="st2" d="M66.3,28.7v77.9c0,0,30.9,1.8,41.6-11.8s13.6-36.4,6.9-46.8s-14.3-17.8-27.3-18.5
			C74.4,28.7,66.3,28.7,66.3,28.7z"/>
		<g>
			<g>
				<path class="st0" d="M63.6,26h19.8c12.2,0,21.5,3.8,27.9,11.4s9.6,17.4,9.6,29.4c0,11.8-3.2,21.5-9.5,29.2s-15.4,11.5-27,11.5
					H63.6V26z M69.4,31.3v71.1H84c8.9,0,16.3-3.2,22.2-9.7c5.9-6.5,8.9-15.1,8.9-25.8c0-10.5-2.9-19-8.8-25.6
					c-5.8-6.6-13.4-9.9-22.7-9.9L69.4,31.3L69.4,31.3z"/>
			</g>
			<circle class="st0" cx="101.8" cy="66.4" r="7.7"/>
			<g>
				<rect x="37.8" y="102.2" class="st1" width="20.3" height="5.4"/>
				<rect x="45.2" y="26.3" class="st1" width="5.4" height="81.4"/>
				<polygon class="st1" points="38.2,37.4 48.2,30.8 45.2,26.2 35.2,32.9 				"/>
			</g>
		</g>
		<path class="st3" d="M132.6,33.9c0-2.9-1.9-5.3-4.5-6.1c-0.6-2.6-3-4.6-5.8-4.6c-1.3,0-2.5,0.4-3.5,1.2c-1.3-1.6-3.2-2.6-5.3-2.6
			c-2.2,0-4.1,1.1-5.4,2.7c-1-0.6-2.1-1-3.4-1c-3.6,0-6.4,2.9-6.4,6.4c0,1.4,0.5,2.8,1.3,3.8c-0.4,0.8-0.6,1.7-0.6,2.6
			c0,3.6,2.9,6.4,6.4,6.4c0.8,0,1.6-0.2,2.3-0.4c1.3,1.2,3,1.9,4.9,1.9c1.5,0,2.9-0.5,4.1-1.3c1.3,1.1,2.9,1.8,4.7,1.8
			c3.2,0,5.8-2,6.9-4.8C130.8,39,132.6,36.7,132.6,33.9z"/>
		<path class="st3" d="M81.9,92.5c0-2.1-1.4-3.9-3.3-4.5c-0.5-2-2.2-3.4-4.3-3.4c-1,0-1.9,0.3-2.6,0.9c-0.9-1.2-2.3-1.9-3.9-1.9
			s-3.1,0.8-4,2c-0.7-0.5-1.6-0.7-2.5-0.7c-2.6,0-4.7,2.1-4.7,4.7c0,1.1,0.4,2,0.9,2.8c-0.3,0.6-0.4,1.3-0.4,2
			c0,2.6,2.1,4.7,4.7,4.7c0.6,0,1.2-0.1,1.7-0.3c1,0.9,2.2,1.4,3.6,1.4c1.1,0,2.2-0.3,3-0.9c0.9,0.8,2.2,1.3,3.5,1.3
			c2.3,0,4.3-1.5,5.1-3.6C80.5,96.3,81.9,94.6,81.9,92.5z"/>
	</g>
</g>
</svg>
