<?xml version="1.0" encoding="utf-8"?>
<!-- Generator: Adobe Illustrator 21.0.2, SVG Export Plug-In . SVG Version: 6.00 Build 0)  -->
<svg version="1.1" id="レイヤー_1" xmlns="http://www.w3.org/2000/svg" xmlns:xlink="http://www.w3.org/1999/xlink" x="0px"
	 y="0px" viewBox="0 0 156 136" style="enable-background:new 0 0 156 136;" xml:space="preserve">
<style type="text/css">
	.st0{fill:#231815;}
	.st1{fill:#00B9E7;}
	.st2{fill:#FFFFFF;}
	.st3{fill:#D3D1D0;}
</style>
<g>
	<g>
		<path class="st0" d="M21.3,14.7c-1.3,0.2-6.2,0.6-7,0.6l-0.1-0.7c0.5,0,3-0.2,3.4-0.2v-1.5H15v-0.6h2.6v-1.2h-2.9v-0.6h2.9V9.3
			h-2.8v-3h6.2v3h-2.7v1.2h2.8v0.6h-2.8v1.2H21v0.6h-2.6v1.4c1.7-0.1,2.3-0.2,2.9-0.3L21.3,14.7z M16,3.9V2.7h0.7v1.1h2.4V2.7h0.8
			v1.1h1.8v0.6h-1.8v1.3h-0.8V4.5h-2.4v1.3H16V4.5h-1.8V3.9H16z M17.6,6.9h-2v1.8h2V6.9z M20.3,6.9h-2v1.8h2V6.9z M20.8,15.3
			c1.3-1.5,2.6-3.9,2.7-8.8h-1.7V5.8h1.7V2.7h0.8v3.1h2.6c0,3.8-0.1,6.6-0.4,8.6c-0.1,1-0.4,1.4-1.5,1.4h-1.5L23.4,15l1.6,0
			c0.6,0,0.7-0.1,0.8-0.7c0.3-1.7,0.4-5.5,0.4-7.7h-1.9c0,1.3-0.2,3.3-0.7,5.1c-0.3,1.2-0.9,2.6-2.1,4.1L20.8,15.3z"/>
		<path class="st0" d="M30.5,14.9c1.1-1.1,1.5-2.1,1.8-3.2l0.8,0.3c-0.3,0.8-0.8,2.2-1.9,3.4L30.5,14.9z M39.5,3.1
			c1.2,0.8,2.8,2.1,4,3.3l-0.5,0.6c-0.7-0.7-1-1-1.3-1.3C34.6,6,33.8,6,30.8,6.1l-0.1-0.7c0.2,0,2,0,2.3,0c0.7-0.7,1.4-1.8,2-2.6
			l0.8,0.2c-0.5,0.8-1.4,1.9-1.9,2.5c2.2,0,2.7,0,7-0.2c-0.3-0.2-1.7-1.3-2-1.5L39.5,3.1z M42.1,7.1v3.6h-9.8V7.1H42.1z M41.3,7.8
			h-8.2V10h8.2V7.8z M35,12.2v2.4c0,0.3,0,0.3,0.5,0.3h3.2c0.7,0,0.9,0,1.1-1.8l0.8,0.2c-0.3,2.3-1,2.3-1.9,2.3h-3.1
			c-0.6,0-1.3,0-1.3-0.9v-2.6H35z M38.1,13c-0.8-0.6-2-1.1-2.6-1.3l0.3-0.5c0.7,0.2,1.9,0.7,2.7,1.2L38.1,13z M43.2,15.2
			c-0.6-1-1.3-2.1-2.4-3.3l0.6-0.3c0.7,0.7,1.7,1.9,2.4,3.3L43.2,15.2z"/>
		<path class="st0" d="M53.2,3.9v0.7h-2.5c0.2,0.3,0.5,1.3,0.5,1.6l-0.8,0.1C50.4,5.8,50.2,5,50,4.5h-1c-0.7,1.1-1.2,1.4-1.6,1.7
			l-0.5-0.6c1.4-1.1,2.1-2.7,2.2-3l0.8,0.1c-0.2,0.4-0.3,0.7-0.5,1H53.2z M53.1,6.8V6h0.8v0.8h5.9v2.6H59V7.5H48.1v1.9h-0.8V6.8
			H53.1z M58.1,8.5v2.8h-8.4v1.2H59v3.1H48.9V8.5H58.1z M49.7,9.1v1.5h7.6V9.1H49.7z M49.7,13.2V15h8.6v-1.7H49.7z M60.1,3.9v0.7
			h-3.3c0.2,0.3,0.6,1.1,0.7,1.6l-0.8,0.1c-0.2-0.4-0.2-0.6-0.7-1.7h-1.3c-0.5,0.8-0.8,1-1.2,1.3l-0.6-0.5c1.1-0.9,1.6-1.9,1.9-2.7
			l0.8,0.2c-0.1,0.4-0.2,0.6-0.5,1H60.1z"/>
		<path class="st0" d="M67.9,13.3c-1.8,0.7-3.5,1-4.6,1.2l-0.1-0.7c0.4-0.1,1.6-0.3,2.1-0.5V8.6h-1.8V7.9h1.8V4.2h-2V3.5h4.6v0.7
			h-1.8v3.7h1.6v0.7h-1.6v4.5c1-0.3,1.4-0.4,1.8-0.6L67.9,13.3z M76,3.1v6.6h-3.4v1.9h3.6v0.7h-3.6v2.5h3.9v0.7h-9v-0.7h4.3v-2.5
			h-3.5v-0.7h3.5V9.7h-3.4V3.1H76z M71.8,3.8h-2.6V6h2.6V3.8z M71.8,6.7h-2.6V9h2.6V6.7z M75.2,3.8h-2.7V6h2.7V3.8z M75.2,6.7h-2.7
			V9h2.7V6.7z"/>
		<path class="st0" d="M84.7,9.4c-1.4-0.8-2.4-1.3-4.1-1.7L81,6.9c1.7,0.5,2.6,0.8,4.1,1.7L84.7,9.4z M81.3,13.9
			c5.9-0.6,8.4-3,10.1-8.2l0.7,0.5c-2,5.6-4.2,7.7-10.6,8.6L81.3,13.9z M85.8,6.1c-1.6-0.9-3-1.4-4.1-1.7l0.4-0.8
			c1.7,0.4,2.7,0.8,4.1,1.6L85.8,6.1z"/>
		<path class="st0" d="M106.4,4c-0.7,2.7-1.8,4.4-2.9,5.8c1.7,1.4,3.4,2.9,5,4.5l-0.7,0.7c-2-2.1-4.4-4.1-4.8-4.5
			c-1,1.2-2.9,3.2-6,4.6l-0.5-0.7c2.3-1,6.7-3.7,8.8-9.6h-8.1V4H106.4z"/>
		<path class="st0" d="M119.8,8.8c0,4.8-2.7,5.9-5.5,6.5l-0.4-0.8c2-0.4,3.6-1,4.4-2.7c0.4-0.8,0.6-2.3,0.6-2.9V8.3h-5.8V7.4h11.6
			v0.8h-4.9V8.8z M123.5,3.7v0.8h-9.3V3.7H123.5z"/>
		<path class="st0" d="M129.2,13.8c0.2,0,1.1,0,1.3,0c1.4-3.3,2.5-6.8,3.4-10.3l1,0.2c-1.2,4.6-2.1,6.8-3.4,10.1
			c1.7-0.1,4.3-0.1,8.1-0.6c-1.1-2-1.8-3.1-2.7-4.3l0.7-0.4c1.7,2.3,2.8,4,3.8,6.3l-0.9,0.4c-0.2-0.5-0.3-0.8-0.6-1.3
			c-5,0.7-9.1,0.8-10.5,0.9L129.2,13.8z"/>
	</g>
	<g>
		<path class="st0" d="M7.5,120.7h1.3v5.4h5.4v1.4H8.8v5.4H7.5v-5.4H2.1v-1.4h5.4V120.7z"/>
		<path class="st0" d="M27,119.4c4,0,7.3,2.9,7.3,7.3c0,4.4-3.3,7.3-7.3,7.3c-4,0-7.3-2.9-7.3-7.3C19.7,122.3,23,119.4,27,119.4z
			 M27,132.6c3.4,0,5.6-2.8,5.6-5.8c0-3-2.2-5.8-5.6-5.8s-5.7,2.8-5.7,5.8C21.4,129.8,23.6,132.6,27,132.6z"/>
		<path class="st0" d="M40.5,133.8v-10.6h1.6v1.4c0.8-1.2,2.1-1.7,3.3-1.7c1.6,0,2.6,0.9,3,1.7c0.4,0.8,0.5,1.6,0.5,3.2v5.9h-1.6
			v-5.9c0-1.6,0-3.4-2.3-3.4c-0.5,0-2.9,0.1-2.9,3.4v5.9H40.5z"/>
		<path class="st0" d="M56.5,129.2c0.1,1.9,1.2,3.5,3.8,3.5c1.7,0,2.7-0.6,3.3-0.9v1.7c-0.5,0.2-1.6,0.7-3.3,0.7
			c-4.3,0-5.4-3.2-5.4-5.5c0-3.4,2.1-5.6,4.8-5.6c1.3,0,3.2,0.5,4.2,2.8c0.5,1.2,0.5,2.6,0.5,3.3H56.5z M62.8,127.7
			c-0.2-2.6-2-3.2-3.1-3.2c-1.7,0-3,1.3-3.2,3.2H62.8z"/>
		<path class="st1" d="M73.8,119.7H79c1.5,0,2.5,0.1,3.6,0.5c3.5,1.3,3.9,5.2,3.9,6.5c0,1.9-0.5,5.2-3.8,6.5
			c-1.1,0.4-2.2,0.5-3.8,0.5h-5V119.7z M75.5,132.3h2.9c2.2,0,6.4,0,6.4-5.5c0-5.5-4.2-5.5-6.3-5.5h-3V132.3z"/>
		<path class="st1" d="M93,123.9c0.4-0.2,1.6-0.9,3.4-0.9c0.5,0,2.4,0,3.5,1.3c0.7,0.8,0.7,1.6,0.7,2.7v4.8c0,1.1,0.2,1.6,0.4,2
			h-1.7c-0.1-0.3-0.3-0.5-0.3-1.3c-1,1.1-2.3,1.6-3.8,1.6c-2.3,0-3.3-1.5-3.3-3.1c0-3.2,3.2-3.5,5-3.7c1.5-0.2,2-0.2,2-1.1
			c0-1.2-1.3-1.7-2.7-1.7c-1.6,0-2.8,0.7-3.3,1L93,123.9z M99.1,128.3c-0.5,0.2-0.7,0.3-2.2,0.4c-1.6,0.2-3.3,0.5-3.3,2.3
			c0,1,0.7,1.7,1.9,1.7c1.2,0,2.9-0.7,3.7-2.2V128.3z"/>
		<path class="st1" d="M117.5,132.2l2.7-9h1.7l-3.4,10.6h-2.1l-2.4-9.3l-2.4,9.3h-2.1l-3.4-10.6h1.7l2.7,9l2.3-9h2.2L117.5,132.2z"
			/>
		<path class="st1" d="M127.4,133.8v-10.6h1.6v1.4c0.8-1.2,2.1-1.7,3.3-1.7c1.6,0,2.6,0.9,3,1.7c0.4,0.8,0.5,1.6,0.5,3.2v5.9h-1.6
			v-5.9c0-1.6,0-3.4-2.3-3.4c-0.5,0-2.9,0.1-2.9,3.4v5.9H127.4z"/>
		<path class="st0" d="M147.2,120.7h1.3v5.4h5.4v1.4h-5.4v5.4h-1.3v-5.4h-5.4v-1.4h5.4V120.7z"/>
	</g>
	<g>
		<path class="st2" d="M66.3,28.7v77.9c0,0,30.9,1.8,41.6-11.8s13.6-36.4,6.9-46.8s-14.3-17.8-27.3-18.5
			C74.4,28.7,66.3,28.7,66.3,28.7z"/>
		<g>
			<g>
				<path class="st0" d="M63.6,26h19.8c12.2,0,21.5,3.8,27.9,11.4c6.4,7.6,9.6,17.4,9.6,29.4c0,11.8-3.2,21.5-9.5,29.2
					c-6.3,7.7-15.4,11.5-27,11.5H63.6V26z M69.4,31.3v71.1H84c8.9,0,16.3-3.2,22.2-9.7c5.9-6.5,8.9-15.1,8.9-25.8
					c0-10.5-2.9-19-8.8-25.6c-5.8-6.6-13.4-9.9-22.7-9.9H69.4z"/>
			</g>
			<circle class="st0" cx="101.8" cy="66.4" r="7.7"/>
			<g>
				<rect x="37.8" y="102.2" class="st1" width="20.3" height="5.4"/>
				
					<rect x="7.2" y="64.2" transform="matrix(9.995844e-12 -1 1 9.995844e-12 -19.0404 114.873)" class="st1" width="81.4" height="5.4"/>
				<polygon class="st1" points="38.2,37.4 48.2,30.8 45.2,26.2 35.2,32.9 				"/>
			</g>
		</g>
		<path class="st3" d="M132.6,33.9c0-2.9-1.9-5.3-4.5-6.1c-0.6-2.6-3-4.6-5.8-4.6c-1.3,0-2.5,0.4-3.5,1.2c-1.3-1.6-3.2-2.6-5.3-2.6
			c-2.2,0-4.1,1.1-5.4,2.7c-1-0.6-2.1-1-3.4-1c-3.6,0-6.4,2.9-6.4,6.4c0,1.4,0.5,2.8,1.3,3.8c-0.4,0.8-0.6,1.7-0.6,2.6
			c0,3.6,2.9,6.4,6.4,6.4c0.8,0,1.6-0.2,2.3-0.4c1.3,1.2,3,1.9,4.9,1.9c1.5,0,2.9-0.5,4.1-1.3c1.3,1.1,2.9,1.8,4.7,1.8
			c3.2,0,5.8-2,6.9-4.8C130.8,39,132.6,36.7,132.6,33.9z"/>
		<path class="st3" d="M81.9,92.5c0-2.1-1.4-3.9-3.3-4.5c-0.5-2-2.2-3.4-4.3-3.4c-1,0-1.9,0.3-2.6,0.9c-0.9-1.2-2.3-1.9-3.9-1.9
			c-1.6,0-3.1,0.8-4,2c-0.7-0.5-1.6-0.7-2.5-0.7c-2.6,0-4.7,2.1-4.7,4.7c0,1.1,0.4,2,0.9,2.8c-0.3,0.6-0.4,1.3-0.4,2
			c0,2.6,2.1,4.7,4.7,4.7c0.6,0,1.2-0.1,1.7-0.3c1,0.9,2.2,1.4,3.6,1.4c1.1,0,2.2-0.3,3-0.9c0.9,0.8,2.2,1.3,3.5,1.3
			c2.3,0,4.3-1.5,5.1-3.6C80.5,96.3,81.9,94.6,81.9,92.5z"/>
	</g>
</g>
</svg>
